<svg xmlns="http://www.w3.org/2000/svg" width="163.37" height="98.79"><path d="M47.37 27.31c2-1 5-1 5-1 1 0 3 1 6 1 2 0 4 1 5 1 0 1-3 4-7 8-3 3-6 7-6 8s1 2 2 3c2 2 3 3 7 2 4 0 13-3 16-5 0-1 3-2 5-3 2 0 5-1 6-2 5-1 6-1 7 0l2 2c4 0 11 5 19 12 11 11 16 16 19 16 4 0 4 5 0 6-2 1-3 0-9-3-3-1-8-4-10-6-4-4-7-5-6-1 1 1 2 3 4 4l4 2c0 1 1 2 2 2 3 1 9 5 10 6 0 0 1 0 1 1 1 0 1 1 0 3-2 1-3 2-3 1-1-1-4-3-8-4-3-2-8-4-10-6-4-2-8-3-7-2 0 1 8 6 15 10 7 3 7 6 2 7-4 2-6 1-11-3-6-4-9-6-11-6s-2 1 0 2c3 1 9 8 9 9-1 1-6 1-7 0 0-1-1-1-2-1-3 0-3-2-3-8 0-4-2-6-8-5-2 0-5-1-6-1-3-2-7-1-8 1v-1c0-2-1-3-4-4-2-1-5-2-6-2s-3-1-5-1c-2-1-4-1-6-1-3 0-3 1-4 6-1 4-2 5-3 5-1-1-1-5-1-23 0-29 0-28 5-29m25-1c9-4 20-4 30 1 9 4 12 5 18 4 3-1 5-1 6-1h1v-1c1 0 5 11 6 18 0 0 1 4 2 7 2 3 3 7 3 8 0 2-1 2-3 2-3 0-9-3-19-13-5-5-12-10-14-12-3-1-5-2-6-3-1-2-8-2-12 0-1 1-3 2-4 2s-3 1-5 2c-8 5-21 8-21 4-1-2 13-15 18-18m7 59v6c-1 5-7 1-7-4 0-3 2-9 4-8 3 0 4 1 3 6m-12-3c0 4-1 7-2 8h-4c-3 0-3 0-3-3 0-2 0-6 1-8 1-6 2-7 7-4 2 1 2 1 1 7m-13-1c-2 6-3 7-6 6-2-1-2-7 0-11 1-4 5-6 7-3 2 1 2 2-1 8m-51-14c2 0 5 2 7 3 2 2 9 5 15 8 5 3 10 6 11 7 0 1 5 0 5-2h1c1 0 1 1 2 3 0 3 1 3 5 4 2 1 5 2 7 3 1 1 4 1 8 0 3 0 5 0 6 1 0 0 1 1 2 1 0 0 2 1 4 1h5c2-1 2-2 3-6 0-6 2-11 4-10 1 0 2 8 1 12 0 3-1 4-2 3-4 0-4 1-4 2 1 3 7 1 8-2 1-2 2-2 5-1 5 1 11 2 12 0 1-1 2-1 4-1 2 1 14-3 14-5h1c2 0 7-4 7-6 0-1 1-2 2-2 2-1 3-3 3-4 1-4 2-4 3-1 0 1 1 3 2 3 0 1 0 2 1 2 1 1 2 1 7-4 3-3 6-5 7-5s3-3 2-5c-1-1-3-1-6 3-8 7-7 7-10 3-1-2-3-5-4-8-1-4-2-9-4-12-3-10-6-22-5-23 0-1 0-2-1-4-1-1-1-2-1-3-1 0 9-7 16-10 3-1 6-3 8-4 1-1 3-2 5-3s4-3 4-4c0-1.99-4-1.99-7 2-2 1-3 2-3 2s-1 0-2 1c-2 1-8 4-9 4 0-1-1 0-1 0-2 3-11 8-14 8s-3 0-1 5c0 1 0 2-3 3s-5 2-9 1-9-3-11-4c-9-5-23-5-32 0-2 1-4 1-10 0h-18v-9l-4-1c-4 0-20-8-24-11-2-2-3-2-3 0 0 3 2 5 8 7l8 4c2 1 5 3 7 4l5 1-1 13c0 8-1 22 0 31v17l-5-1c-3 0-6-2-8-3l-8-4c-3-1-5-3-6-3-3-3-11-6-12-6-.99 1 0 3 3 5"/></svg>