<svg xmlns="http://www.w3.org/2000/svg" width="127.76" height="149.04"><style>.st0{fill:#000}</style><path class="st0" d="M71.27 78.63c-7 3-11 3-17 0-5-1-8-7-9-12 0-2-1-3-1-3-2-1 1-8 4-12 7-11 23-13 30-4 3 4 3 5 3 13 0 11-1 14-10 18m10-32c-4-7-14-10-24-8-8 2-17 15-16 24s7 19 12 20c1 0 3 1 4 1 4 1 11 0 17-3s7-4 8-9c2-3 3-6 3-12 0-7-1-9-4-13"/><path class="st0" d="M76.27 86.63c-6 4-16 3-26-1l-8-3-3-7c-5-8-6-18-5-24 2-5 9-12 15-15 4-2 17-3 21-1 1 1 3 2 5 2 1 0 4 2 6 4 4 5 6 9 6 19l1 9-5 7c-2 5-5 9-7 10m5 8c5 11 8 17 10 23 1 4 3 8 5 11l2 4-3-2c-1 0-5-2-8-4-5-4-6-4-7-2-1 1-1 3-1 4 0 0-1 2-2 2-2 2-2 2-3-5-1-4-2-7-3-8-2-2-2-2 2-14 2-6 4-11 4-12 0-3 1-2 4 3m10-32c-1-9-1-11-4-17-5-10-11-13-24-14-11-1-17 1-24 7-6 6-9 13-8 20 0 7 5 22 8 25 2 1 6 4 11 5 7 3 9 3 16 3h8l-1 3c0 3-5 20-5 22-1 1-1 1-2 9-1 3-2 8-3 10-1 4-2 4-6-3s-4-7-18 5c-2 3-5 5-5 4 0 0 1-4 3-10 4-12 10-34 11-39 1-3 0-3-1-3s-2 1-2 4c-1 4-4 20-7 29-1 3-3 10-5 15s-3 10-3 10c0 3 2 1 8-4 3-3 6-6 6-7 1 0 3-1 4-3l4-2 2 2c1 2 3 5 5 7 1 3 3 5 3 5 1 1 3-2 3-6s3-18 4-18c0 0 1 3 2 7 1 5 2 9 2 10l1 3 2-3c1-2 2-5 4-7l2-4 6 3c4 2 8 5 9 6 2 1 3 2 4 2 2 0 3-4 1-6-5-7-7-12-11-22-3-6-6-14-8-17l-3-6 3-4c5-6 8-14 8-21"/><path class="st0" d="M63.27 58.63c-1-8-2-11-4-10-1 1-2 3-2 5 0 1-1 4-2 5s-1 2-1 2c1 2 2 2 4-2 1-3 1-3 2 5 1 4 1 9 1 10-1 2 1 2 3 0 1 0 1-2 0-4s-1-7-1-11m46 27s2 1 3 1c2 0 4 0 5 1 2 1 3 1 3-2 0-2-1-2-5-3-5 0-7 1-6 3m13-48c0 1-2 1-4 2-5 0-4 2 1 3 5 0 5 0 5-2 1-3 0-4-2-3m5 25c1-3 1-3-5-4-4 0-5 0-5 1s1 2 4 3c2 0 4 1 4 1 1 0 1 0 2-1m-14-49c-2 0-6 7-6 8 1 1 2 0 4-2 3-4 4-6 2-6m-10 83c0 1 2 3 4 5 5 3 7 4 6 1-1-1-9-7-10-7zm-57-89c0-4-1-5-2-4-2 0-2 4 0 8 1 3 2 2 2-4m-34 73c1 0 2-1 2-3 0-1-1-2-3-1-3 1-6 4-6 4v2c1 1 1 1 3 0 1-1 3-2 4-2m59-69v-6c-1-5.99-1-6.99-3-4 0 1 0 3 1 8 0 1 1 2 2 2m-60 91c1 2 11-3 11-5s-2-3-4-1-3 3-4 3c-2 0-4 2-3 3m0-56c-1-2-10-6-11-5-.99 1 1 4 2 4s3 0 5 1c4 3 6 3 4 0m-2-26c-3 0-2 1 0 3 2 1 3 2 4 3 1 2 4 2 4 1 0-2-7-7-8-7m90 38h3-2z"/></svg>