<?xml version="1.0" standalone="no"?>
<!DOCTYPE svg PUBLIC "-//W3C//DTD SVG 20010904//EN"
 "http://www.w3.org/TR/2001/REC-SVG-20010904/DTD/svg10.dtd">
<svg version="1.0" xmlns="http://www.w3.org/2000/svg"
 width="633.000000pt" height="633.000000pt" viewBox="0 0 633.000000 633.000000"
 preserveAspectRatio="xMidYMid meet">
<metadata>
Created by potrace 1.11, written by Peter Selinger 2001-2013
</metadata>
<g transform="translate(0.000000,633.000000) scale(0.100000,-0.100000)"
fill="#000000" stroke="none">
<path d="M4127 5390 c-50 -13 -126 -73 -164 -130 -17 -25 -47 -79 -67 -120
-44 -91 -56 -111 -79 -134 -9 -10 -17 -25 -17 -35 0 -23 31 -51 56 -51 30 -1
-37 -27 -166 -65 -119 -36 -160 -63 -160 -106 0 -11 -14 -61 -31 -112 -18 -50
-34 -108 -36 -127 -2 -19 -11 -62 -20 -95 -9 -33 -19 -85 -23 -115 -9 -63 -35
-152 -56 -193 -10 -17 -17 -63 -19 -117 -2 -49 -6 -94 -9 -99 -8 -12 -8 -57
-1 -321 5 -200 12 -255 43 -340 24 -65 59 -98 113 -106 38 -6 40 -8 33 -38 -4
-17 -8 -171 -10 -343 l-4 -312 81 -168 c44 -92 84 -177 89 -188 5 -11 26 -56
45 -100 74 -161 88 -201 86 -234 -1 -19 5 -41 14 -51 10 -11 15 -31 13 -52
l-3 -33 -106 -5 c-69 -3 -112 -10 -123 -19 -14 -12 -16 -47 -16 -317 0 -302 0
-303 22 -318 19 -14 67 -16 319 -16 356 0 329 -11 329 136 0 99 0 99 29 116
36 20 80 84 91 132 9 42 0 92 -33 170 -20 47 -23 65 -16 85 6 14 13 47 15 74
3 27 12 67 19 88 30 85 53 280 60 517 2 64 6 128 9 142 3 14 8 70 11 125 7
120 13 181 21 218 3 15 7 56 9 90 4 96 15 138 34 136 43 -4 62 5 118 59 67 62
118 157 110 201 -3 14 1 34 9 45 16 26 21 253 12 561 -5 173 -10 225 -28 295
-19 69 -24 117 -26 250 -2 156 -14 285 -29 322 -4 11 0 18 14 23 29 9 37 49
17 80 -9 14 -22 25 -30 25 -7 0 -21 9 -31 20 -10 11 -23 20 -29 20 -14 0 -106
85 -106 99 0 19 68 24 116 7 26 -9 63 -16 81 -16 22 0 39 -7 51 -21 35 -43 44
-49 72 -49 38 0 63 36 62 91 -1 47 -22 75 -87 117 -52 35 -183 102 -197 102
-6 0 -34 22 -62 48 -73 69 -245 152 -323 157 -32 2 -75 0 -96 -5z m-104 -2745
c4 -71 9 -141 12 -155 11 -52 16 -119 20 -254 4 -162 -2 -162 -61 2 -40 109
-56 173 -53 217 2 36 1 115 -2 210 -2 59 2 79 26 130 l29 60 12 -40 c6 -22 14
-98 17 -170z"/>
<path d="M5050 4158 c-7 -35 -14 -74 -16 -88 -3 -14 -16 -88 -30 -165 -15 -77
-28 -151 -31 -165 -15 -84 -69 -374 -113 -610 -50 -270 -134 -726 -144 -785
-3 -16 -10 -52 -15 -80 -11 -56 -99 -519 -105 -550 -6 -34 -36 -189 -40 -211
-2 -12 -7 -39 -11 -60 -6 -44 -51 -275 -65 -344 -10 -44 -14 -67 -26 -142 l-7
-38 315 0 314 0 13 87 c7 49 15 97 17 108 4 21 15 89 19 120 5 34 25 149 30
175 7 33 18 112 18 128 0 6 12 12 26 13 76 3 413 1 416 -2 2 -2 6 -24 10 -49
3 -25 8 -56 10 -70 5 -39 17 -113 20 -130 3 -15 25 -159 31 -195 3 -25 15 -95
19 -115 2 -8 4 -27 4 -42 l1 -28 309 0 310 0 -5 28 c-3 15 -13 72 -24 127 -10
55 -22 116 -25 135 -3 19 -8 42 -10 50 -2 8 -7 35 -10 60 -3 25 -10 61 -15 80
-5 19 -11 49 -14 65 -3 17 -10 57 -16 90 -6 33 -15 87 -21 119 -5 33 -12 62
-14 65 -1 3 -6 31 -10 61 -4 30 -8 57 -10 60 -2 3 -10 44 -19 90 -8 47 -22
121 -30 165 -8 44 -17 94 -20 110 -3 17 -17 91 -31 165 -15 74 -28 146 -30
160 -2 14 -8 50 -14 80 -18 92 -21 103 -31 160 -6 30 -12 66 -15 80 -6 28 -24
126 -31 167 -5 30 -44 236 -50 268 -2 11 -6 34 -9 50 -3 17 -10 53 -15 80 -15
76 -21 117 -25 151 -3 32 -14 106 -21 137 -2 9 -6 25 -8 35 -2 9 -9 50 -16 90
l-13 72 -238 0 -238 0 -113 149 c-62 83 -116 150 -119 150 -4 1 -12 -27 -19
-61z m355 -1123 c4 -28 8 -61 10 -75 2 -14 7 -47 10 -75 4 -27 8 -61 10 -75 2
-14 7 -47 10 -75 4 -27 8 -61 10 -75 2 -14 11 -79 20 -145 9 -66 18 -131 20
-145 2 -14 7 -47 10 -75 4 -27 8 -61 10 -75 2 -14 7 -47 10 -75 4 -27 11 -77
16 -110 5 -33 9 -66 9 -72 0 -10 -38 -13 -156 -13 l-155 0 7 58 c3 31 8 66 10
77 2 11 6 43 9 70 4 28 8 61 10 75 2 14 6 43 9 65 3 22 8 60 11 85 3 25 8 52
10 60 2 8 6 40 10 71 3 31 7 65 9 75 2 11 7 44 10 75 4 31 8 65 10 75 2 11 7
46 11 79 4 32 8 67 10 76 2 9 6 38 10 65 3 27 8 58 10 69 2 11 4 31 4 44 1 38
9 21 16 -34z"/>
<path d="M695 3953 c-69 -9 -200 -45 -253 -69 -109 -51 -244 -166 -287 -245
-11 -20 -13 -19 -117 80 l-38 35 0 -447 0 -447 310 0 310 0 0 173 c0 195 12
256 61 319 74 93 221 106 300 27 94 -94 85 -319 -22 -538 -51 -105 -64 -126
-284 -461 -67 -102 -175 -268 -240 -370 -127 -196 -198 -305 -215 -330 -5 -8
-55 -84 -110 -168 l-100 -153 0 -219 0 -220 784 0 784 0 -2 242 -1 243 -433 0
c-339 0 -431 3 -428 12 3 7 77 120 164 250 88 131 243 364 346 518 229 341
282 427 330 529 79 171 106 294 101 476 -2 69 -6 140 -9 158 -41 254 -188 453
-399 539 -62 26 -88 34 -182 54 -49 11 -309 19 -370 12z"/>
<path d="M2410 3696 c-51 -121 -99 -234 -106 -251 -7 -16 -65 -156 -129 -310
-65 -154 -123 -293 -130 -310 -8 -16 -52 -122 -99 -235 -46 -113 -116 -279
-154 -370 l-69 -165 1 -230 1 -230 458 0 457 0 0 -337 0 -338 295 0 295 0 0
335 0 335 135 0 135 0 0 230 c0 212 -1 230 -17 231 -10 0 -71 1 -136 1 -111 1
-118 2 -122 22 -2 12 -4 428 -4 926 0 498 0 908 0 912 -1 4 -163 7 -360 6
l-359 0 -92 -222z m235 -1034 l0 -609 -218 0 c-120 0 -220 3 -222 7 -3 4 31
106 74 226 76 212 259 717 324 896 18 49 34 88 37 88 3 0 5 -274 5 -608z"/>
</g>
</svg>
