<svg xmlns="http://www.w3.org/2000/svg" width="163.37" height="98.79" viewBox="0 0 163.37 98.79">
	<style type="text/css">
		.st0{fill:#000000;}
	</style>
	<path class="st0" d="M47.37,27.31C49.37,26.31 52.37,26.31 52.37,26.31C53.37,26.31 55.37,27.31 58.37,27.31C60.37,27.31 62.37,28.31 63.37,28.31C63.37,29.31 60.37,32.31 56.37,36.31C53.37,39.31 50.37,43.31 50.37,44.31C50.37,45.31 51.37,46.31 52.37,47.31C54.37,49.31 55.37,50.31 59.37,49.31C63.37,49.31 72.37,46.31 75.37,44.31C75.37,43.31 78.37,42.31 80.37,41.31C82.37,41.31 85.37,40.31 86.37,39.31C91.37,38.31 92.37,38.31 93.37,39.31L95.37,41.31C99.37,41.31 106.37,46.31 114.37,53.31C125.37,64.31 130.37,69.31 133.37,69.31C137.37,69.31 137.37,74.31 133.37,75.31C131.37,76.31 130.37,75.31 124.37,72.31C121.37,71.31 116.37,68.31 114.37,66.31C110.37,62.31 107.37,61.31 108.37,65.31C109.37,66.31 110.37,68.31 112.37,69.31L116.37,71.31C116.37,72.31 117.37,73.31 118.37,73.31C121.37,74.31 127.37,78.31 128.37,79.31C128.37,79.31 129.37,79.31 129.37,80.31C130.37,80.31 130.37,81.31 129.37,83.31C127.37,84.31 126.37,85.31 126.37,84.31C125.37,83.31 122.37,81.31 118.37,80.31C115.37,78.31 110.37,76.31 108.37,74.31C104.37,72.31 100.37,71.31 101.37,72.31C101.37,73.31 109.37,78.31 116.37,82.31C123.37,85.31 123.37,88.31 118.37,89.31C114.37,91.31 112.37,90.31 107.37,86.31C101.37,82.31 98.37,80.31 96.37,80.31C94.37,80.31 94.37,81.31 96.37,82.31C99.37,83.31 105.37,90.31 105.37,91.31C104.37,92.31 99.37,92.31 98.37,91.31C98.37,90.31 97.37,90.31 96.37,90.31C93.37,90.31 93.37,88.31 93.37,82.31C93.37,78.31 91.37,76.31 85.37,77.31C83.37,77.31 80.37,76.31 79.37,76.31C76.37,74.31 72.37,75.31 71.37,77.31L71.37,76.31C71.37,74.31 70.37,73.31 67.37,72.31C65.37,71.31 62.37,70.31 61.37,70.31C60.37,70.31 58.37,69.31 56.37,69.31C54.37,68.31 52.37,68.31 50.37,68.31C47.37,68.31 47.37,69.31 46.37,74.31C45.37,78.31 44.37,79.31 43.37,79.31C42.37,78.31 42.37,74.31 42.37,56.31C42.37,27.31 42.37,28.31 47.37,27.31M72.37,26.31C81.37,22.31 92.37,22.31 102.37,27.31C111.37,31.31 114.37,32.31 120.37,31.31C123.37,30.31 125.37,30.31 126.37,30.31L127.37,30.31L127.37,29.31C128.37,29.31 132.37,40.31 133.37,47.31C133.37,47.31 134.37,51.31 135.37,54.31C137.37,57.31 138.37,61.31 138.37,62.31C138.37,64.31 137.37,64.31 135.37,64.31C132.37,64.31 126.37,61.31 116.37,51.31C111.37,46.31 104.37,41.31 102.37,39.31C99.37,38.31 97.37,37.31 96.37,36.31C95.37,34.31 88.37,34.31 84.37,36.31C83.37,37.31 81.37,38.31 80.37,38.31C79.37,38.31 77.37,39.31 75.37,40.31C67.37,45.31 54.37,48.31 54.37,44.31C53.37,42.31 67.37,29.31 72.37,26.31M79.37,85.31L79.37,91.31C78.37,96.31 72.37,92.31 72.37,87.31C72.37,84.31 74.37,78.31 76.37,79.31C79.37,79.31 80.37,80.31 79.37,85.31M67.37,82.31C67.37,86.31 66.37,89.31 65.37,90.31L61.37,90.31C58.37,90.31 58.37,90.31 58.37,87.31C58.37,85.31 58.37,81.31 59.37,79.31C60.37,73.31 61.37,72.31 66.37,75.31C68.37,76.31 68.37,76.31 67.37,82.31M54.37,81.31C52.37,87.31 51.37,88.31 48.37,87.31C46.37,86.31 46.37,80.31 48.37,76.31C49.37,72.31 53.37,70.31 55.37,73.31C57.37,74.31 57.37,75.31 54.37,81.31M3.37,67.31C5.37,67.31 8.37,69.31 10.37,70.31C12.37,72.31 19.37,75.31 25.37,78.31C30.37,81.31 35.37,84.31 36.37,85.31C36.37,86.31 41.37,85.31 41.37,83.31L42.37,83.31C43.37,83.31 43.37,84.31 44.37,86.31C44.37,89.31 45.37,89.31 49.37,90.31C51.37,91.31 54.37,92.31 56.37,93.31C57.37,94.31 60.37,94.31 64.37,93.31C67.37,93.31 69.37,93.31 70.37,94.31C70.37,94.31 71.37,95.31 72.37,95.31C72.37,95.31 74.37,96.31 76.37,96.31L81.37,96.31C83.37,95.31 83.37,94.31 84.37,90.31C84.37,84.31 86.37,79.31 88.37,80.31C89.37,80.31 90.37,88.31 89.37,92.31C89.37,95.31 88.37,96.31 87.37,95.31C83.37,95.31 83.37,96.31 83.37,97.31C84.37,100.31 90.37,98.31 91.37,95.31C92.37,93.31 93.37,93.31 96.37,94.31C101.37,95.31 107.37,96.31 108.37,94.31C109.37,93.31 110.37,93.31 112.37,93.31C114.37,94.31 126.37,90.31 126.37,88.31L127.37,88.31C129.37,88.31 134.37,84.31 134.37,82.31C134.37,81.31 135.37,80.31 136.37,80.31C138.37,79.31 139.37,77.31 139.37,76.31C140.37,72.31 141.37,72.31 142.37,75.31C142.37,76.31 143.37,78.31 144.37,78.31C144.37,79.31 144.37,80.31 145.37,80.31C146.37,81.31 147.37,81.31 152.37,76.31C155.37,73.31 158.37,71.31 159.37,71.31C160.37,71.31 162.37,68.31 161.37,66.31C160.37,65.31 158.37,65.31 155.37,69.31C147.37,76.31 148.37,76.31 145.37,72.31C144.37,70.31 142.37,67.31 141.37,64.31C140.37,60.31 139.37,55.31 137.37,52.31C134.37,42.31 131.37,30.31 132.37,29.31C132.37,28.31 132.37,27.31 131.37,25.31C130.37,24.31 130.37,23.31 130.37,22.31C129.37,22.31 139.37,15.31 146.37,12.31C149.37,11.31 152.37,9.31 154.37,8.31C155.37,7.31 157.37,6.31 159.37,5.31C161.37,4.31 163.37,2.31 163.37,1.31C163.37,-0.68 159.37,-0.68 156.37,3.31C154.37,4.31 153.37,5.31 153.37,5.31C153.37,5.31 152.37,5.31 151.37,6.31C149.37,7.31 143.37,10.31 142.37,10.31C142.37,9.31 141.37,10.31 141.37,10.31C139.37,13.31 130.37,18.31 127.37,18.31C124.37,18.31 124.37,18.31 126.37,23.31C126.37,24.31 126.37,25.31 123.37,26.31C120.37,27.31 118.37,28.31 114.37,27.31C110.37,26.31 105.37,24.31 103.37,23.31C94.37,18.31 80.37,18.31 71.37,23.31C69.37,24.31 67.37,24.31 61.37,23.31L43.37,23.31L43.37,14.31L39.37,13.31C35.37,13.31 19.37,5.31 15.37,2.31C13.37,0.31 12.37,0.31 12.37,2.31C12.37,5.31 14.37,7.31 20.37,9.31L28.37,13.31C30.37,14.31 33.37,16.31 35.37,17.31L40.37,18.31L39.37,31.31C39.37,39.31 38.37,53.31 39.37,62.31L39.37,79.31L34.37,78.31C31.37,78.31 28.37,76.31 26.37,75.31L18.37,71.31C15.37,70.31 13.37,68.31 12.37,68.31C9.37,65.31 1.37,62.31 0.37,62.31C-0.62,63.31 0.37,65.31 3.37,67.31"/>
</svg>