<svg xmlns="http://www.w3.org/2000/svg" width="163.27" height="113.39" viewBox="0 0 163.27 113.39">
	<style type="text/css">
		.st0{fill:#000000;}
	</style>
	<path class="st0" d="M35.24,19.99C36.24,16.99 38.24,15.99 50.24,13.99C62.24,10.99 84.24,9.99 100.24,9.99C109.24,9.99 111.24,10.99 113.24,12.99C116.24,15.99 116.24,16.99 117.24,37.99C118.24,57.99 119.24,54.99 108.24,57.99C101.24,58.99 95.24,59.99 61.24,60.99C50.24,60.99 41.24,61.99 39.24,61.99C37.24,62.99 37.24,61.99 36.24,59.99C35.24,55.99 34.24,22.99 35.24,19.99M32.24,40.99C33.24,56.99 33.24,63.99 35.24,64.99C36.24,66.99 37.24,66.99 40.24,65.99C41.24,64.99 55.24,63.99 70.24,63.99C95.24,62.99 105.24,62.99 118.24,59.99C121.24,58.99 123.24,52.99 122.24,45.99C121.24,43.99 120.24,35.99 120.24,27.99C119.24,11.99 119.24,10.99 113.24,7.99C110.24,5.99 107.24,5.99 104.24,5.99C95.24,5.99 78.24,7.99 69.24,7.99C58.24,8.99 38.24,12.99 34.24,14.99L30.24,16.99L31.24,22.99C31.24,26.99 32.24,34.99 32.24,40.99"/>
	<path class="st0" d="M56.24,53.99C57.24,54.99 56.24,54.99 55.24,55.99C52.24,56.99 50.24,56.99 49.24,55.99C48.24,53.99 54.24,52.99 56.24,53.99M51.24,58.99C53.24,58.99 56.24,57.99 58.24,57.99C60.24,57.99 61.24,54.99 59.24,51.99C58.24,50.99 57.24,50.99 53.24,50.99C46.24,51.99 45.24,52.99 46.24,56.99C47.24,59.99 47.24,59.99 51.24,58.99"/>
	<path class="st0" d="M121.24,85.99C107.24,86.99 80.24,86.99 82.24,84.99L92.24,84.99C97.24,84.99 103.24,83.99 105.24,82.99L113.24,82.99C117.24,84.99 121.24,83.99 122.24,81.99C122.24,79.99 123.24,80.99 125.24,82.99C128.24,85.99 129.24,84.99 121.24,85.99M84.24,90.99L56.24,90.99C48.24,89.99 66.24,87.99 80.24,87.99C96.24,88.99 99.24,89.99 84.24,90.99M36.24,89.99C35.24,89.99 33.24,90.99 32.24,90.99L30.24,90.99L32.24,87.99C35.24,84.99 35.24,84.99 45.24,83.99L70.24,83.99C76.24,84.99 74.24,85.99 68.24,85.99C59.24,85.99 37.24,88.99 36.24,89.99M81.24,85.99C81.24,85.99 80.24,86.99 79.24,86.99C78.24,86.99 78.24,85.99 78.24,85.99C78.24,84.99 78.24,84.99 79.24,84.99C80.24,84.99 81.24,85.99 81.24,85.99M79.24,79.99C91.24,79.99 104.24,78.99 108.24,77.99C116.24,76.99 120.24,76.99 120.24,77.99C120.24,78.99 118.24,78.99 116.24,78.99C114.24,78.99 109.24,79.99 105.24,80.99C97.24,82.99 77.24,82.99 61.24,81.99C51.24,80.99 52.24,80.99 79.24,79.99M132.24,83.99C131.24,82.99 127.24,79.99 124.24,77.99L118.24,73.99L110.24,74.99C105.24,75.99 95.24,76.99 70.24,76.99L38.24,76.99L32.24,82.99C32.24,83.99 30.24,85.99 27.24,88.99C25.24,91.99 23.24,94.99 23.24,95.99C23.24,97.99 24.24,97.99 25.24,95.99C27.24,93.99 40.24,91.99 51.24,92.99C71.24,94.99 97.24,92.99 114.24,89.99C115.24,89.99 120.24,88.99 124.24,88.99C133.24,87.99 136.24,86.99 132.24,83.99"/>
	<path class="st0" d="M155.24,91.99C149.24,91.99 133.24,92.99 127.24,93.99C125.24,94.99 120.24,94.99 115.24,94.99C111.24,95.99 106.24,95.99 103.24,96.99C100.24,96.99 96.24,97.99 93.24,97.99C90.24,97.99 83.24,97.99 79.24,98.99C74.24,99.99 67.24,100.99 62.24,100.99C57.24,100.99 52.24,101.99 50.24,101.99C45.24,102.99 11.24,102.99 8.24,101.99L6.24,101.99C7.24,101.99 12.24,94.99 18.24,87.99C26.24,77.99 30.24,73.99 32.24,73.99C34.24,73.99 40.24,72.99 46.24,72.99C51.24,72.99 59.24,71.99 63.24,70.99C67.24,69.99 74.24,68.99 79.24,68.99C84.24,68.99 92.24,67.99 97.24,67.99C101.24,67.99 110.24,66.99 115.24,66.99C126.24,66.99 126.24,66.99 131.24,68.99C134.24,70.99 138.24,74.99 142.24,76.99C145.24,79.99 148.24,82.99 149.24,82.99C150.24,82.99 151.24,83.99 151.24,83.99C151.24,84.99 153.24,86.99 156.24,88.99C158.24,89.99 161.24,91.99 161.24,91.99ZM160.24,96.99C160.24,98.99 159.24,99.99 159.24,99.99C159.24,99.99 152.24,100.99 143.24,100.99C134.24,100.99 126.24,101.99 125.24,101.99C122.24,101.99 107.24,102.99 93.24,103.99C87.24,103.99 80.24,104.99 77.24,104.99C74.24,104.99 64.24,105.99 55.24,106.99C36.24,108.99 5.24,109.99 4.24,107.99C2.24,105.99 5.24,104.99 19.24,105.99C35.24,106.99 66.24,103.99 80.24,101.99C81.24,100.99 86.24,100.99 91.24,100.99C95.24,100.99 100.24,99.99 104.24,99.99C107.24,98.99 113.24,97.99 118.24,97.99C123.24,97.99 128.24,96.99 129.24,96.99C130.24,96.99 139.24,95.99 155.24,94.99C160.24,94.99 161.24,94.99 160.24,96.99M27.24,21.99C27.24,14.99 28.24,11.99 29.24,10.99C30.24,9.99 37.24,7.99 50.24,5.99C50.24,5.99 56.24,4.99 63.24,4.99C70.24,4.99 76.24,3.99 78.24,3.99L98.24,3.99C121.24,2.99 124.24,4.99 124.24,16.99C124.24,19.99 125.24,28.99 125.24,36.99C126.24,52.99 126.24,56.99 125.24,60.99C124.24,62.99 124.24,63.99 120.24,63.99L114.24,63.99C112.24,63.99 105.24,64.99 98.24,64.99C73.24,65.99 68.24,66.99 60.24,68.99C57.24,68.99 50.24,69.99 44.24,69.99C38.24,69.99 33.24,70.99 32.24,70.99C32.24,70.99 31.24,70.99 31.24,69.99L31.24,66.99C31.24,64.99 29.24,50.99 28.24,44.99C28.24,40.99 27.24,32.99 27.24,21.99M161.24,87.99C156.24,84.99 145.24,75.99 141.24,71.99C139.24,69.99 137.24,68.99 137.24,68.99C137.24,68.99 135.24,66.99 133.24,65.99C130.24,63.99 130.24,63.99 129.24,51.99C129.24,45.99 128.24,38.99 128.24,35.99C128.24,31.99 127.24,24.99 127.24,18.99C127.24,12.99 127.24,6.99 126.24,6.99C126.24,5.99 124.24,3.99 121.24,2.99L117.24,0L95.24,0C83.24,0 71.24,0.99 69.24,0.99C67.24,1.99 62.24,1.99 57.24,1.99C48.24,2.99 29.24,5.99 26.24,7.99C24.24,8.99 24.24,9.99 24.24,24.99C25.24,33.99 25.24,42.99 26.24,45.99C26.24,48.99 27.24,56.99 27.24,61.99L28.24,71.99L24.24,76.99C23.24,78.99 20.24,81.99 20.24,81.99C19.24,82.99 16.24,86.99 13.24,89.99C10.24,93.99 6.24,98.99 4.24,100.99C-0.75,105.99 -0.75,106.99 1.24,110.99C1.24,112.99 2.24,113.99 5.24,112.99C7.24,112.99 17.24,111.99 27.24,111.99C36.24,111.99 45.24,110.99 47.24,110.99C51.24,109.99 58.24,109.99 68.24,108.99C72.24,108.99 78.24,107.99 81.24,107.99C84.24,107.99 92.24,106.99 99.24,106.99C105.24,106.99 113.24,105.99 116.24,105.99C130.24,104.99 151.24,103.99 154.24,103.99C164.24,104.99 163.24,105.99 163.24,96.99C163.24,89.99 163.24,88.99 161.24,87.99"/>
	<path class="st0" d="M54.24,44.99C61.24,43.99 65.24,42.99 75.24,37.99C90.24,29.99 95.24,24.99 95.24,21.99C94.24,19.99 85.24,19.99 84.24,21.99C83.24,23.99 87.24,25.99 89.24,24.99L86.24,27.99C80.24,33.99 62.24,41.99 55.24,41.99C50.24,42.99 48.24,42.99 48.24,43.99C47.24,45.99 48.24,45.99 54.24,44.99"/>
	<path class="st0" d="M105.24,23.99L108.24,23.99C110.24,24.99 111.24,32.99 111.24,41.99C111.24,47.99 111.24,47.99 108.24,47.99C107.24,47.99 105.24,47.99 105.24,46.99C105.24,46.99 104.24,42.99 104.24,37.99C104.24,33.99 103.24,28.99 103.24,26.99C102.24,23.99 103.24,23.99 105.24,23.99M102.24,41.99L102.24,51.99L106.24,51.99C113.24,51.99 117.24,48.99 115.24,44.99C114.24,43.99 113.24,38.99 113.24,31.99C113.24,25.99 112.24,20.99 112.24,20.99C112.24,19.99 109.24,19.99 106.24,19.99L100.24,19.99L100.24,22.99C100.24,24.99 101.24,26.99 101.24,28.99C101.24,30.99 102.24,36.99 102.24,41.99"/>
	<path class="st0" d="M71.24,52.99C68.24,53.99 68.24,52.99 68.24,51.99C68.24,49.99 68.24,48.99 70.24,48.99L73.24,48.99C74.24,48.99 75.24,49.99 75.24,50.99C75.24,52.99 74.24,52.99 71.24,52.99M78.24,46.99C78.24,45.99 77.24,44.99 71.24,45.99C67.24,45.99 64.24,46.99 64.24,46.99C64.24,46.99 63.24,55.99 63.24,56.99L65.24,56.99C66.24,56.99 70.24,55.99 73.24,55.99C79.24,55.99 81.24,54.99 80.24,50.99C79.24,49.99 78.24,47.99 78.24,46.99"/>
	<path class="st0" d="M95.24,48.99C95.24,49.99 93.24,49.99 91.24,50.99C89.24,50.99 89.24,50.99 89.24,49.99L89.24,47.99C88.24,46.99 88.24,45.99 87.24,43.99C87.24,41.99 87.24,40.99 90.24,39.99L93.24,39.99C94.24,40.99 95.24,44.99 95.24,48.99M84.24,46.99L84.24,53.99L89.24,53.99C98.24,52.99 98.24,51.99 98.24,41.99L98.24,36.99L91.24,36.99C84.24,36.99 85.24,35.99 84.24,46.99"/>
	<path class="st0" d="M49.24,80.99L42.24,80.99L46.24,80.99Z"/>
</svg>