<svg xmlns="http://www.w3.org/2000/svg" width="127.76" height="149.04" viewBox="0 0 127.76 149.04">
	<style type="text/css">
		.st0{fill:#000000;}
	</style>
	<path class="st0" d="M71.27,78.63C64.27,81.63 60.27,81.63 54.27,78.63C49.27,77.63 46.27,71.63 45.27,66.63C45.27,64.63 44.27,63.63 44.27,63.63C42.27,62.63 45.27,55.63 48.27,51.63C55.27,40.63 71.27,38.63 78.27,47.63C81.27,51.63 81.27,52.63 81.27,60.63C81.27,71.63 80.27,74.63 71.27,78.63M81.27,46.63C77.27,39.63 67.27,36.63 57.27,38.63C49.27,40.63 40.27,53.63 41.27,62.63C42.27,71.63 48.27,81.63 53.27,82.63C54.27,82.63 56.27,83.63 57.27,83.63C61.27,84.63 68.27,83.63 74.27,80.63C80.27,77.63 81.27,76.63 82.27,71.63C84.27,68.63 85.27,65.63 85.27,59.63C85.27,52.63 84.27,50.63 81.27,46.63"/>
	<path class="st0" d="M76.27,86.63C70.27,90.63 60.27,89.63 50.27,85.63L42.27,82.63L39.27,75.63C34.27,67.63 33.27,57.63 34.27,51.63C36.27,46.63 43.27,39.63 49.27,36.63C53.27,34.63 66.27,33.63 70.27,35.63C71.27,36.63 73.27,37.63 75.27,37.63C76.27,37.63 79.27,39.63 81.27,41.63C85.27,46.63 87.27,50.63 87.27,60.63L88.27,69.63L83.27,76.63C81.27,81.63 78.27,85.63 76.27,86.63M81.27,94.63C86.27,105.63 89.27,111.63 91.27,117.63C92.27,121.63 94.27,125.63 96.27,128.63L98.27,132.63L95.27,130.63C94.27,130.63 90.27,128.63 87.27,126.63C82.27,122.63 81.27,122.63 80.27,124.63C79.27,125.63 79.27,127.63 79.27,128.63C79.27,128.63 78.27,130.63 77.27,130.63C75.27,132.63 75.27,132.63 74.27,125.63C73.27,121.63 72.27,118.63 71.27,117.63C69.27,115.63 69.27,115.63 73.27,103.63C75.27,97.63 77.27,92.63 77.27,91.63C77.27,88.63 78.27,89.63 81.27,94.63M91.27,62.63C90.27,53.63 90.27,51.63 87.27,45.63C82.27,35.63 76.27,32.63 63.27,31.63C52.27,30.63 46.27,32.63 39.27,38.63C33.27,44.63 30.27,51.63 31.27,58.63C31.27,65.63 36.27,80.63 39.27,83.63C41.27,84.63 45.27,87.63 50.27,88.63C57.27,91.63 59.27,91.63 66.27,91.63L74.27,91.63L73.27,94.63C73.27,97.63 68.27,114.63 68.27,116.63C67.27,117.63 67.27,117.63 66.27,125.63C65.27,128.63 64.27,133.63 63.27,135.63C62.27,139.63 61.27,139.63 57.27,132.63C53.27,125.63 53.27,125.63 39.27,137.63C37.27,140.63 34.27,142.63 34.27,141.63C34.27,141.63 35.27,137.63 37.27,131.63C41.27,119.63 47.27,97.63 48.27,92.63C49.27,89.63 48.27,89.63 47.27,89.63C46.27,89.63 45.27,90.63 45.27,93.63C44.27,97.63 41.27,113.63 38.27,122.63C37.27,125.63 35.27,132.63 33.27,137.63C31.27,142.63 30.27,147.63 30.27,147.63C30.27,150.63 32.27,148.63 38.27,143.63C41.27,140.63 44.27,137.63 44.27,136.63C45.27,136.63 47.27,135.63 48.27,133.63L52.27,131.63L54.27,133.63C55.27,135.63 57.27,138.63 59.27,140.63C60.27,143.63 62.27,145.63 62.27,145.63C63.27,146.63 65.27,143.63 65.27,139.63C65.27,135.63 68.27,121.63 69.27,121.63C69.27,121.63 70.27,124.63 71.27,128.63C72.27,133.63 73.27,137.63 73.27,138.63L74.27,141.63L76.27,138.63C77.27,136.63 78.27,133.63 80.27,131.63L82.27,127.63L88.27,130.63C92.27,132.63 96.27,135.63 97.27,136.63C99.27,137.63 100.27,138.63 101.27,138.63C103.27,138.63 104.27,134.63 102.27,132.63C97.27,125.63 95.27,120.63 91.27,110.63C88.27,104.63 85.27,96.63 83.27,93.63L80.27,87.63L83.27,83.63C88.27,77.63 91.27,69.63 91.27,62.63"/>
	<path class="st0" d="M63.27,58.63C62.27,50.63 61.27,47.63 59.27,48.63C58.27,49.63 57.27,51.63 57.27,53.63C57.27,54.63 56.27,57.63 55.27,58.63C54.27,59.63 54.27,60.63 54.27,60.63C55.27,62.63 56.27,62.63 58.27,58.63C59.27,55.63 59.27,55.63 60.27,63.63C61.27,67.63 61.27,72.63 61.27,73.63C60.27,75.63 62.27,75.63 64.27,73.63C65.27,73.63 65.27,71.63 64.27,69.63C63.27,67.63 63.27,62.63 63.27,58.63"/>
	<path class="st0" d="M109.27,85.63C109.27,85.63 111.27,86.63 112.27,86.63C114.27,86.63 116.27,86.63 117.27,87.63C119.27,88.63 120.27,88.63 120.27,85.63C120.27,83.63 119.27,83.63 115.27,82.63C110.27,82.63 108.27,83.63 109.27,85.63"/>
	<path class="st0" d="M122.27,37.63C122.27,38.63 120.27,38.63 118.27,39.63C113.27,39.63 114.27,41.63 119.27,42.63C124.27,42.63 124.27,42.63 124.27,40.63C125.27,37.63 124.27,36.63 122.27,37.63"/>
	<path class="st0" d="M127.27,62.63C128.27,59.63 128.27,59.63 122.27,58.63C118.27,58.63 117.27,58.63 117.27,59.63C117.27,60.63 118.27,61.63 121.27,62.63C123.27,62.63 125.27,63.63 125.27,63.63C126.27,63.63 126.27,63.63 127.27,62.63"/>
	<path class="st0" d="M113.27,13.63C111.27,13.63 107.27,20.63 107.27,21.63C108.27,22.63 109.27,21.63 111.27,19.63C114.27,15.63 115.27,13.63 113.27,13.63"/>
	<path class="st0" d="M103.27,96.63C103.27,97.63 105.27,99.63 107.27,101.63C112.27,104.63 114.27,105.63 113.27,102.63C112.27,101.63 104.27,95.63 103.27,95.63Z"/>
	<path class="st0" d="M46.27,7.63C46.27,3.63 45.27,2.63 44.27,3.63C42.27,3.63 42.27,7.63 44.27,11.63C45.27,14.63 46.27,13.63 46.27,7.63"/>
	<path class="st0" d="M12.27,80.63C13.27,80.63 14.27,79.63 14.27,77.63C14.27,76.63 13.27,75.63 11.27,76.63C8.27,77.63 5.27,80.63 5.27,80.63L5.27,82.63C6.27,83.63 6.27,83.63 8.27,82.63C9.27,81.63 11.27,80.63 12.27,80.63"/>
	<path class="st0" d="M71.27,11.63L71.27,5.63C70.27,-0.36 70.27,-1.36 68.27,1.63C68.27,2.63 68.27,4.63 69.27,9.63C69.27,10.63 70.27,11.63 71.27,11.63"/>
	<path class="st0" d="M11.27,102.63C12.27,104.63 22.27,99.63 22.27,97.63C22.27,95.63 20.27,94.63 18.27,96.63C16.27,98.63 15.27,99.63 14.27,99.63C12.27,99.63 10.27,101.63 11.27,102.63"/>
	<path class="st0" d="M11.27,46.63C10.27,44.63 1.27,40.63 0.27,41.63C-0.72,42.63 1.27,45.63 2.27,45.63C3.27,45.63 5.27,45.63 7.27,46.63C11.27,49.63 13.27,49.63 11.27,46.63"/>
	<path class="st0" d="M9.27,20.63C6.27,20.63 7.27,21.63 9.27,23.63C11.27,24.63 12.27,25.63 13.27,26.63C14.27,28.63 17.27,28.63 17.27,27.63C17.27,25.63 10.27,20.63 9.27,20.63"/>
	<path class="st0" d="M99.27,58.63L102.27,58.63L100.27,58.63Z"/>
</svg>