<svg xmlns="http://www.w3.org/2000/svg" width="119.87" height="115.96" viewBox="0 0 119.87 115.96">
	<style type="text/css">
		.st0{fill:#000000;}
	</style>
	<path class="st0" d="M111.37,80.64C110.37,83.64 108.37,87.64 107.37,88.64C104.37,91.64 95.37,99.64 93.37,101.64C91.37,101.64 89.37,103.64 87.37,104.64C86.37,105.64 82.37,107.64 78.37,108.64C74.37,109.64 69.37,110.64 67.37,110.64C63.37,111.64 45.37,110.64 43.37,109.64C43.37,109.64 40.37,108.64 36.37,107.64C33.37,106.64 29.37,105.64 26.37,103.64C19.37,100.64 11.37,89.64 11.37,84.64C11.37,83.64 10.37,82.64 9.37,80.64C6.37,76.64 1.37,61.64 2.37,57.64C3.37,51.64 6.37,43.64 10.37,35.64C12.37,29.64 14.37,26.64 21.37,20.64C36.37,6.64 44.37,3.64 65.37,4.64C82.37,5.64 89.37,8.64 101.37,19.64C116.37,34.64 120.37,61.64 111.37,80.64M117.37,37.64C117.37,32.64 99.37,10.64 92.37,7.64C90.37,6.64 88.37,5.64 87.37,4.64C84.37,1.64 62.37,-1.35 49.37,0.64C34.37,2.64 15.37,17.64 8.37,32.64C-2.62,54.64 -2.62,65.64 7.37,85.64C12.37,96.64 19.37,104.64 24.37,107.64C29.37,109.64 45.37,114.64 53.37,114.64C65.37,116.64 68.37,116.64 78.37,112.64C91.37,107.64 94.37,105.64 104.37,96.64C111.37,89.64 116.37,80.64 118.37,69.64C120.37,59.64 120.37,55.64 118.37,46.64C118.37,42.64 117.37,38.64 117.37,37.64"/>
	<path class="st0" d="M108.37,50.64C109.37,55.64 108.37,55.64 104.37,55.64C101.37,54.64 100.37,56.64 100.37,61.64C101.37,65.64 101.37,65.64 104.37,66.64L107.37,66.64C109.37,65.64 109.37,71.64 107.37,75.64C106.37,77.64 103.37,82.64 100.37,85.64C95.37,91.64 87.37,95.64 78.37,98.64C71.37,100.64 71.37,99.64 71.37,94.64C71.37,92.64 70.37,91.64 67.37,91.64C66.37,92.64 64.37,92.64 63.37,92.64C59.37,92.64 59.37,92.64 59.37,96.64C60.37,98.64 59.37,100.64 58.37,100.64C56.37,101.64 49.37,102.64 43.37,101.64C37.37,101.64 29.37,97.64 24.37,92.64C20.37,87.64 13.37,75.64 13.37,71.64C13.37,70.64 14.37,70.64 16.37,70.64C19.37,69.64 19.37,68.64 20.37,63.64L21.37,58.64L18.37,57.64L12.37,57.64C10.37,56.64 9.37,56.64 10.37,53.64C12.37,41.64 26.37,20.64 31.37,20.64C32.37,20.64 33.37,19.64 33.37,19.64C33.37,17.64 42.37,13.64 45.37,14.64C47.37,14.64 48.37,15.64 48.37,17.64C49.37,20.64 51.37,21.64 56.37,21.64C60.37,21.64 60.37,21.64 60.37,17.64L61.37,12.64L68.37,13.64C85.37,14.64 92.37,18.64 100.37,31.64C105.37,38.64 108.37,44.64 108.37,50.64M93.37,16.64C88.37,13.64 74.37,9.64 65.37,8.64L57.37,8.64L57.37,13.64C58.37,17.64 58.37,18.64 55.37,18.64C52.37,18.64 51.37,17.64 51.37,15.64C50.37,10.64 48.37,9.64 43.37,10.64C41.37,10.64 37.37,11.64 35.37,12.64C34.37,14.64 31.37,15.64 30.37,15.64C26.37,17.64 16.37,29.64 14.37,35.64C9.37,44.64 7.37,49.64 6.37,54.64C6.37,57.64 6.37,58.64 9.37,59.64C11.37,60.64 14.37,61.64 15.37,61.64C16.37,61.64 16.37,61.64 16.37,62.64C16.37,65.64 15.37,66.64 13.37,67.64C9.37,67.64 8.37,71.64 11.37,78.64L13.37,84.64C14.37,84.64 15.37,85.64 15.37,86.64C17.37,90.64 21.37,95.64 27.37,99.64C33.37,104.64 36.37,105.64 43.37,106.64C49.37,106.64 56.37,106.64 59.37,104.64C60.37,104.64 62.37,101.64 63.37,99.64C65.37,95.64 68.37,94.64 67.37,98.64C67.37,99.64 67.37,101.64 68.37,102.64C70.37,103.64 80.37,102.64 86.37,100.64C88.37,98.64 90.37,98.64 91.37,98.64C92.37,98.64 102.37,88.64 107.37,83.64C109.37,80.64 111.37,73.64 112.37,67.64C113.37,63.64 112.37,62.64 111.37,61.64L108.37,61.64C106.37,63.64 104.37,63.64 104.37,61.64C104.37,59.64 104.37,59.64 107.37,59.64C113.37,59.64 114.37,54.64 111.37,42.64C109.37,36.64 107.37,33.64 103.37,28.64C103.37,27.64 101.37,25.64 99.37,22.64Z"/>
	<path class="st0" d="M72.37,51.64C65.37,58.64 59.37,62.64 58.37,61.64C57.37,60.64 76.37,42.64 84.37,36.64C87.37,33.64 90.37,32.64 90.37,32.64C91.37,33.64 89.37,35.64 72.37,51.64M45.37,53.64C42.37,50.64 39.37,47.64 39.37,46.64C39.37,45.64 47.37,51.64 47.37,53.64C48.37,53.64 48.37,54.64 49.37,54.64C50.37,54.64 51.37,54.64 52.37,55.64C53.37,56.64 53.37,58.64 53.37,58.64C52.37,59.64 50.37,58.64 45.37,53.64M90.37,27.64C89.37,27.64 80.37,34.64 71.37,43.64C58.37,56.64 59.37,55.64 52.37,51.64C49.37,49.64 45.37,47.64 43.37,45.64C41.37,43.64 36.37,41.64 35.37,41.64C34.37,41.64 33.37,42.64 33.37,43.64C33.37,44.64 33.37,46.64 35.37,47.64L39.37,51.64C39.37,52.64 42.37,55.64 46.37,57.64L53.37,64.64C54.37,65.64 55.37,66.64 56.37,66.64C58.37,66.64 64.37,63.64 65.37,62.64C66.37,61.64 70.37,57.64 75.37,53.64C88.37,41.64 94.37,36.64 94.37,34.64C94.37,32.64 91.37,27.64 90.37,27.64"/>
</svg>