<svg xmlns="http://www.w3.org/2000/svg" width="163.27" height="113.39"><style>.st0{fill:#000}</style><path class="st0" d="M35.24 19.99c1-3 3-4 15-6 12-3 34-4 50-4 9 0 11 1 13 3 3 3 3 4 4 25 1 20 2 17-9 20-7 1-13 2-47 3-11 0-20 1-22 1-2 1-2 0-3-2-1-4-2-37-1-40m-3 21c1 16 1 23 3 24 1 2 2 2 5 1 1-1 15-2 30-2 25-1 35-1 48-4 3-1 5-7 4-14-1-2-2-10-2-18-1-16-1-17-7-20-3-2-6-2-9-2-9 0-26 2-35 2-11 1-31 5-35 7l-4 2 1 6c0 4 1 12 1 18"/><path class="st0" d="M56.24 53.99c1 1 0 1-1 2-3 1-5 1-6 0-1-2 5-3 7-2m-5 5c2 0 5-1 7-1s3-3 1-6c-1-1-2-1-6-1-7 1-8 2-7 6 1 3 1 3 5 2m70 27c-14 1-41 1-39-1h10c5 0 11-1 13-2h8c4 2 8 1 9-1 0-2 1-1 3 1 3 3 4 2-4 3m-37 5h-28c-8-1 10-3 24-3 16 1 19 2 4 3m-48-1c-1 0-3 1-4 1h-2l2-3c3-3 3-3 13-4h25c6 1 4 2-2 2-9 0-31 3-32 4m45-4s-1 1-2 1-1-1-1-1c0-1 0-1 1-1s2 1 2 1m-2-6c12 0 25-1 29-2 8-1 12-1 12 0s-2 1-4 1-7 1-11 2c-8 2-28 2-44 1-10-1-9-1 18-2m53 4c-1-1-5-4-8-6l-6-4-8 1c-5 1-15 2-40 2h-32l-6 6c0 1-2 3-5 6-2 3-4 6-4 7 0 2 1 2 2 0 2-2 15-4 26-3 20 2 46 0 63-3 1 0 6-1 10-1 9-1 12-2 8-5"/><path class="st0" d="M155.24 91.99c-6 0-22 1-28 2-2 1-7 1-12 1-4 1-9 1-12 2-3 0-7 1-10 1s-10 0-14 1c-5 1-12 2-17 2s-10 1-12 1c-5 1-39 1-42 0h-2c1 0 6-7 12-14 8-10 12-14 14-14s8-1 14-1c5 0 13-1 17-2s11-2 16-2 13-1 18-1c4 0 13-1 18-1 11 0 11 0 16 2 3 2 7 6 11 8 3 3 6 6 7 6s2 1 2 1c0 1 2 3 5 5 2 1 5 3 5 3zm5 5c0 2-1 3-1 3s-7 1-16 1-17 1-18 1c-3 0-18 1-32 2-6 0-13 1-16 1s-13 1-22 2c-19 2-50 3-51 1-2-2 1-3 15-2 16 1 47-2 61-4 1-1 6-1 11-1 4 0 9-1 13-1 3-1 9-2 14-2s10-1 11-1 10-1 26-2c5 0 6 0 5 2m-133-75c0-7 1-10 2-11s8-3 21-5c0 0 6-1 13-1s13-1 15-1h20c23-1 26 1 26 13 0 3 1 12 1 20 1 16 1 20 0 24-1 2-1 3-5 3h-6c-2 0-9 1-16 1-25 1-30 2-38 4-3 0-10 1-16 1s-11 1-12 1c0 0-1 0-1-1v-3c0-2-2-16-3-22 0-4-1-12-1-23m134 66c-5-3-16-12-20-16-2-2-4-3-4-3s-2-2-4-3c-3-2-3-2-4-14 0-6-1-13-1-16 0-4-1-11-1-17s0-12-1-12c0-1-2-3-5-4l-4-2.99h-22c-12 0-24 .99-26 .99-2 1-7 1-12 1-9 1-28 4-31 6-2 1-2 2-2 17 1 9 1 18 2 21 0 3 1 11 1 16l1 10-4 5c-1 2-4 5-4 5-1 1-4 5-7 8-3 4-7 9-9 11-4.99 5-4.99 6-3 10 0 2 1 3 4 2 2 0 12-1 22-1 9 0 18-1 20-1 4-1 11-1 21-2 4 0 10-1 13-1s11-1 18-1c6 0 14-1 17-1 14-1 35-2 38-2 10 1 9 2 9-7 0-7 0-8-2-9"/><path class="st0" d="M54.24 44.99c7-1 11-2 21-7 15-8 20-13 20-16-1-2-10-2-11 0s3 4 5 3l-3 3c-6 6-24 14-31 14-5 1-7 1-7 2-1 2 0 2 6 1m51-21h3c2 1 3 9 3 18 0 6 0 6-3 6-1 0-3 0-3-1 0 0-1-4-1-9 0-4-1-9-1-11-1-3 0-3 2-3m-3 18v10h4c7 0 11-3 9-7-1-1-2-6-2-13 0-6-1-11-1-11 0-1-3-1-6-1h-6v3c0 2 1 4 1 6s1 8 1 13m-31 11c-3 1-3 0-3-1 0-2 0-3 2-3h3c1 0 2 1 2 2 0 2-1 2-4 2m7-6c0-1-1-2-7-1-4 0-7 1-7 1s-1 9-1 10h2c1 0 5-1 8-1 6 0 8-1 7-5-1-1-2-3-2-4m17 2c0 1-2 1-4 2-2 0-2 0-2-1v-2c-1-1-1-2-2-4 0-2 0-3 3-4h3c1 1 2 5 2 9m-11-2v7h5c9-1 9-2 9-12v-5h-7c-7 0-6-1-7 10m-35 34h-7 4z"/></svg>