<svg xmlns="http://www.w3.org/2000/svg" width="119.87" height="115.96"><style>.st0{fill:#000}</style><path class="st0" d="M111.37 80.64c-1 3-3 7-4 8-3 3-12 11-14 13-2 0-4 2-6 3-1 1-5 3-9 4s-9 2-11 2c-4 1-22 0-24-1 0 0-3-1-7-2-3-1-7-2-10-4-7-3-15-14-15-19 0-1-1-2-2-4-3-4-8-19-7-23 1-6 4-14 8-22 2-6 4-9 11-15 15-14 23-17 44-16 17 1 24 4 36 15 15 15 19 42 10 61m6-43c0-5-18-27-25-30-2-1-4-2-5-3-3-3-25-5.99-38-4-15 2-34 17-41 32-10.99 22-10.99 33-1 53 5 11 12 19 17 22 5 2 21 7 29 7 12 2 15 2 25-2 13-5 16-7 26-16 7-7 12-16 14-27 2-10 2-14 0-23 0-4-1-8-1-9"/><path class="st0" d="M108.37 50.64c1 5 0 5-4 5-3-1-4 1-4 6 1 4 1 4 4 5h3c2-1 2 5 0 9-1 2-4 7-7 10-5 6-13 10-22 13-7 2-7 1-7-4 0-2-1-3-4-3-1 1-3 1-4 1-4 0-4 0-4 4 1 2 0 4-1 4-2 1-9 2-15 1-6 0-14-4-19-9-4-5-11-17-11-21 0-1 1-1 3-1 3-1 3-2 4-7l1-5-3-1h-6c-2-1-3-1-2-4 2-12 16-33 21-33 1 0 2-1 2-1 0-2 9-6 12-5 2 0 3 1 3 3 1 3 3 4 8 4 4 0 4 0 4-4l1-5 7 1c17 1 24 5 32 18 5 7 8 13 8 19m-15-34c-5-3-19-7-28-8h-8v5c1 4 1 5-2 5s-4-1-4-3c-1-5-3-6-8-5-2 0-6 1-8 2-1 2-4 3-5 3-4 2-14 14-16 20-5 9-7 14-8 19 0 3 0 4 3 5 2 1 5 2 6 2s1 0 1 1c0 3-1 4-3 5-4 0-5 4-2 11l2 6c1 0 2 1 2 2 2 4 6 9 12 13 6 5 9 6 16 7 6 0 13 0 16-2 1 0 3-3 4-5 2-4 5-5 4-1 0 1 0 3 1 4 2 1 12 0 18-2 2-2 4-2 5-2s11-10 16-15c2-3 4-10 5-16 1-4 0-5-1-6h-3c-2 2-4 2-4 0s0-2 3-2c6 0 7-5 4-17-2-6-4-9-8-14 0-1-2-3-4-6z"/><path class="st0" d="M72.37 51.64c-7 7-13 11-14 10s18-19 26-25c3-3 6-4 6-4 1 1-1 3-18 19m-27 2c-3-3-6-6-6-7s8 5 8 7c1 0 1 1 2 1s2 0 3 1 1 3 1 3c-1 1-3 0-8-5m45-26c-1 0-10 7-19 16-13 13-12 12-19 8-3-2-7-4-9-6s-7-4-8-4-2 1-2 2 0 3 2 4l4 4c0 1 3 4 7 6l7 7c1 1 2 2 3 2 2 0 8-3 9-4s5-5 10-9c13-12 19-17 19-19s-3-7-4-7"/></svg>